#N canvas 480 363 450 300 12;
#X obj 19 14 inlet~;
#X obj 33 265 outlet~;
#X obj 92 266 outlet~;
#X obj 181 49 tgl 19 0 empty empty empty 0 -10 0 12 #fcfcfc #000000 #000000 0 1;
#X obj 181 24 tgl 19 0 empty empty empty 0 -10 0 12 #fcfcfc #000000 #000000 0 1;
#X obj 159 26 vsl 19 64 0 1 0 0 empty empty empty 0 -9 0 12 #fcfcfc #000000 #000000 0 1;
#X obj 184 74 hsl 48 19 0 1 0 0 empty empty empty -2 -10 0 12 #fcfcfc #000000 #000000 0 1;
#X text 208 24 Phase;
#X obj 299 16 loadbang;
#X msg 299 41 0.5;
#X msg 300 64 0;
#X obj 55 45 sel 0 1;
#X msg 55 75 1;
#X msg 85 75 -1;
#X obj 35 105 *~;
#X obj 20 60 *~;
#X text 208 50 60Hz;
#X obj 105 114 sel 0 1;
#X msg 98 143 60;
#X msg 131 143 0;
#X obj 42 143 hip~;
#X obj 39 234 *~;
#X obj 89 234 *~;
#X obj 67 208 * -1;
#X obj 73 183 - 1;
#X obj 237 74 bng 19 250 50 0 empty empty empty 0 -10 0 12 #fcfcfc #000000 #000000;
#X connect 0 0 15 0;
#X connect 3 0 17 0;
#X connect 4 0 11 0;
#X connect 5 0 15 1;
#X connect 6 0 24 0;
#X connect 6 0 22 1;
#X connect 8 0 9 0;
#X connect 8 0 10 0;
#X connect 9 0 6 0;
#X connect 10 0 4 0;
#X connect 10 0 3 0;
#X connect 10 0 5 0;
#X connect 10 0 19 0;
#X connect 11 0 12 0;
#X connect 11 1 13 0;
#X connect 12 0 14 1;
#X connect 13 0 14 1;
#X connect 14 0 20 0;
#X connect 15 0 14 0;
#X connect 17 0 18 0;
#X connect 17 1 19 0;
#X connect 18 0 20 1;
#X connect 19 0 20 1;
#X connect 20 0 21 0;
#X connect 20 0 22 0;
#X connect 21 0 1 0;
#X connect 22 0 2 0;
#X connect 23 0 21 1;
#X connect 24 0 23 0;
#X connect 25 0 9 0;
#X coords 0 -1 1 1 110 100 1 150 0;
