#N canvas 102 602 474 348 12;
#X obj 111 39 *~;
#X obj 111 14 osc~ 440;
#X floatatom 205 39 5 0 0 0 - - - 0;
#X obj 147 38 dbtorms;
#X floatatom 148 63 15 0 0 0 - - - 0;
#X obj 187 14 hsl 162 19 0 100 0 0 empty empty empty -2 -10 0 12 #fcfcfc #000000 #000000 0 1;
#X obj 111 214 *~;
#X obj 10 14 loadbang;
#X obj 10 37 metro 100;
#X obj 10 60 s metro;
#X obj 147 214 line~;
#X obj 73 14 bng 19 250 50 0 empty empty empty 0 -10 0 12 #fcfcfc #000000 #000000;
#X floatatom 163 293 5 0 0 0 - - - 0;
#X obj 164 268 snapshot~;
#X obj 164 244 r metro;
#X obj 72 60 bng 19 250 50 0 empty empty empty 0 -10 0 12 #fcfcfc #000000 #000000;
#X msg 200 187 1 100;
#X msg 147 187 0.2 20;
#X floatatom 22 280 5 0 0 0 - - - 0;
#X obj 23 255 snapshot~;
#X obj 23 231 r metro;
#X obj 146 137 env~;
#X obj 147 161 threshold~ 50 10 45 10;
#X obj 22 205 env~;
#X connect 0 0 6 0;
#X connect 0 0 21 0;
#X connect 1 0 0 0;
#X connect 2 0 3 0;
#X connect 3 0 4 0;
#X connect 3 0 0 1;
#X connect 5 0 2 0;
#X connect 6 0 23 0;
#X connect 7 0 8 0;
#X connect 8 0 9 0;
#X connect 8 0 15 0;
#X connect 10 0 13 0;
#X connect 10 0 6 1;
#X connect 11 0 8 0;
#X connect 13 0 12 0;
#X connect 14 0 13 0;
#X connect 16 0 10 0;
#X connect 17 0 10 0;
#X connect 19 0 18 0;
#X connect 20 0 19 0;
#X connect 21 0 22 0;
#X connect 22 0 17 0;
#X connect 22 1 16 0;
#X connect 23 0 19 0;
