#N canvas 965 551 498 383 12;
#X obj 28 19 adc~;
#X obj 33 134 dac~;
#X obj 34 53 *~ 1;
#X obj 38 92 hip~;
#X floatatom 79 69 5 0 0 0 - - - 0;
#X obj 306 161 vu 19 200 empty empty -1 -10 0 12 #404040 #000000 1 0;
#X obj 168 177 snapshot~;
#X obj 167 148 env~;
#X obj 169 204 rmstodb;
#X obj 206 128 loadbang;
#X obj 300 78 snapshot~;
#X obj 353 -22 loadbang;
#X floatatom 171 259 5 0 0 0 - - - 0;
#X floatatom 305 134 5 0 0 0 - - - 0;
#X obj 170 232 - 100;
#X obj 299 51 rmstodb~;
#X msg 81 36 1000;
#X obj 207 151 metro 40;
#X msg 351 1 bang;
#X obj 350 23 metro 20;
#X obj 314 108 - 140;
#X obj 275 28 env~ 2048;
#X obj 110 184 vsl 19 162 0 1 0 0 empty empty empty 0 -9 0 12 #fcfcfc #000000 #000000 0 1;
#X msg 108 152 1;
#X connect 0 0 2 0;
#X connect 0 1 2 0;
#X connect 2 0 3 0;
#X connect 2 0 21 0;
#X connect 3 0 1 1;
#X connect 3 0 1 0;
#X connect 3 0 7 0;
#X connect 4 0 3 1;
#X connect 6 0 8 0;
#X connect 7 0 6 0;
#X connect 8 0 14 0;
#X connect 9 0 17 0;
#X connect 9 0 23 0;
#X connect 10 0 20 0;
#X connect 11 0 18 0;
#X connect 13 0 5 0;
#X connect 14 0 12 0;
#X connect 15 0 10 0;
#X connect 16 0 4 0;
#X connect 17 0 6 0;
#X connect 18 0 16 0;
#X connect 18 0 19 0;
#X connect 18 0 17 0;
#X connect 19 0 10 0;
#X connect 20 0 13 0;
#X connect 21 0 15 0;
#X connect 22 0 2 1;
#X connect 23 0 22 0;
