#N canvas 63 370 498 383 12;
#X obj 90 25 adc~;
#X obj 95 150 dac~;
#X obj 96 69 *~ 1;
#X obj 100 108 hip~;
#X floatatom 17 83 5 0 0 0 - - - 0;
#X obj 306 170 vu 19 200 empty empty -1 -10 0 12 #404040 #000000 1 0;
#X obj 147 155 snapshot~;
#X obj 146 126 env~;
#X obj 148 182 rmstodb;
#X obj 185 106 loadbang;
#X obj 293 80 snapshot~;
#X obj 331 26 loadbang;
#X floatatom 150 237 5 0 0 0 - - - 0;
#X floatatom 305 135 5 0 0 0 - - - 0;
#X obj 149 210 - 100;
#X msg 19 50 1000;
#X obj 186 129 metro 40;
#X obj 331 54 metro 20;
#X obj 263 184 vsl 19 162 60 100 0 0 empty empty empty 0 -9 0 12 #fcfcfc #000000 #000000 0 1;
#X obj 303 106 - 100;
#X obj 291 54 env~;
#X obj 17 26 loadbang;
#X obj 134 40 dbtorms;
#X msg 264 157 0;
#X floatatom 263 353 5 0 0 0 - - - 0;
#X connect 0 0 2 0;
#X connect 0 1 2 0;
#X connect 2 0 20 0;
#X connect 2 0 3 0;
#X connect 3 0 1 1;
#X connect 3 0 1 0;
#X connect 3 0 7 0;
#X connect 4 0 3 1;
#X connect 6 0 8 0;
#X connect 7 0 6 0;
#X connect 8 0 14 0;
#X connect 9 0 16 0;
#X connect 9 0 23 0;
#X connect 10 0 19 0;
#X connect 11 0 17 0;
#X connect 13 0 5 0;
#X connect 14 0 12 0;
#X connect 15 0 4 0;
#X connect 16 0 6 0;
#X connect 17 0 10 0;
#X connect 18 0 22 0;
#X connect 18 0 24 0;
#X connect 19 0 13 0;
#X connect 20 0 10 0;
#X connect 21 0 15 0;
#X connect 22 0 2 1;
#X connect 23 0 18 0;
