#N canvas 708 493 498 383 12;
#X obj 81 24 vu 19 200 vu_master_l empty -1 -10 0 12 #404040 #000000 1 0;
#X obj 49 61 vsl 19 162 60 100 0 0 s_slider_main_db r_slider_main_db empty 0 -9 0 12 #fcfcfc #000000 #000000 0 1;
#X floatatom 49 234 5 0 0 0 - - - 0;
#X obj 49 263 tgl 19 0 empty empty empty 0 -10 0 12 #fcfcfc #000000 #000000 0 1;
#N canvas 227 571 450 300 wiring 1;
#X obj 268 121 snapshot~;
#X obj 306 67 loadbang;
#X floatatom 280 176 5 0 0 0 - - - 0;
#X obj 306 95 metro 20;
#X obj 278 147 - 100;
#X obj 266 95 env~;
#X obj 90 25 adc~;
#X obj 95 150 dac~;
#X obj 102 69 *~ 1;
#X obj 100 108 hip~;
#X floatatom 17 83 5 0 0 0 - - - 0;
#X obj 147 155 snapshot~;
#X obj 146 126 env~;
#X obj 148 182 rmstodb;
#X obj 180 105 loadbang;
#X floatatom 150 237 5 0 0 0 - - - 0;
#X obj 149 210 - 100;
#X obj 181 127 metro 40;
#X obj 17 26 loadbang;
#X obj 138 41 dbtorms;
#X obj 277 207 s vu_master_l;
#X floatatom 199 64 5 0 0 0 - - - 0;
#X obj 139 11 r s_slider_main_db;
#X msg 19 50 100;
#X connect 0 0 4 0;
#X connect 1 0 3 0;
#X connect 2 0 20 0;
#X connect 3 0 0 0;
#X connect 4 0 2 0;
#X connect 5 0 0 0;
#X connect 6 0 8 0;
#X connect 6 1 8 0;
#X connect 8 0 9 0;
#X connect 8 0 5 0;
#X connect 9 0 7 1;
#X connect 9 0 7 0;
#X connect 9 0 12 0;
#X connect 10 0 9 1;
#X connect 11 0 13 0;
#X connect 12 0 11 0;
#X connect 13 0 16 0;
#X connect 14 0 17 0;
#X connect 16 0 15 0;
#X connect 17 0 11 0;
#X connect 18 0 23 0;
#X connect 19 0 8 1;
#X connect 19 0 21 0;
#X connect 22 0 19 0;
#X connect 23 0 10 0;
#X restore 109 322 pd wiring;
#X obj 139 24 vu 19 200 vu_master_r empty -1 -10 0 12 #404040 #000000 1 0;
#X connect 1 0 2 0;
