#N canvas 550 485 450 300 12;
#X obj 33 17 osc~;
#X obj 35 97 linpan;
#X obj 30 128 outlet~;
#X obj 35 67 *~;
#X obj 89 128 outlet~;
#X obj 35 42 *~;
#X floatatom 238 107 5 0 0 0 - - - 0;
#X obj 208 132 hsl 48 16 0 1 0 0 empty empty empty -2 -10 0 12 #fcfcfc #000000 #000000 0 1;
#X obj 208 154 hsl 48 16 0 1 0 0 empty empty empty -2 -10 0 12 #fcfcfc #000000 #000000 0 1;
#X text 214 131 Pan;
#X text 210 153 Volume;
#X msg 254 71 440;
#X obj 262 154 tgl 16 0 empty empty empty 0 -10 0 12 #fcfcfc #000000 #000000 0 1;
#X msg 221 71 1;
#X obj 202 39 loadbang;
#X floatatom 72 44 5 0 0 0 - - - 0;
#X floatatom 73 69 5 0 0 0 - - - 0;
#X msg 189 71 0.5;
#X obj 261 132 bng 16 250 50 0 empty empty empty 0 -10 0 12 #fcfcfc #000000 #000000;
#X connect 0 0 5 0;
#X connect 1 0 2 0;
#X connect 1 1 4 0;
#X connect 3 0 1 0;
#X connect 5 0 3 0;
#X connect 6 0 0 0;
#X connect 7 0 1 1;
#X connect 8 0 16 0;
#X connect 11 0 6 0;
#X connect 12 0 15 0;
#X connect 13 0 12 0;
#X connect 14 0 13 0;
#X connect 14 0 11 0;
#X connect 14 0 17 0;
#X connect 15 0 5 1;
#X connect 16 0 3 1;
#X connect 17 0 7 0;
#X connect 18 0 17 0;
#X coords 0 -1 1 1 80 80 1 200 100;
