#N canvas 607 323 450 300 10;
#X obj 130 10 snapshot~;
#X obj 169 -74 loadbang;
#X floatatom 129 66 5 0 0 0 - - -, f 5;
#X obj 169 -44 metro 20;
#X obj 129 36 - 100;
#X obj 129 -14 env~;
#X obj 60 -60 dbtorms;
#X obj 20 -60 *~ 1;
#X obj 20 0 outlet~;
#X obj 20 -100 inlet~;
#X obj 70 -100 inlet;
#X obj 130 90 outlet;
#X msg 110 -60 1;
#X connect 0 0 4 0;
#X connect 1 0 3 0;
#X connect 1 0 12 0;
#X connect 2 0 11 0;
#X connect 3 0 0 0;
#X connect 4 0 2 0;
#X connect 5 0 0 0;
#X connect 6 0 7 1;
#X connect 7 0 8 0;
#X connect 7 0 5 0;
#X connect 9 0 7 0;
#X connect 10 0 6 0;
#X connect 12 0 7 1;
